# xmcd
#
# Track frame offsets: 
#        150
#        21236
#        35995
#        63254
#        86397
#        107969
#        130585
#        158493
#        179918
#        196477
#        212704
#        240344
#        255904
#        282081
#
# Disc length: 4054 seconds
#
# Revision: 0
# Processed by: cddbd v1.5.1PL0 Copyright (c) Steve Scherf et al.
# Submitted via: ExactAudioCopy v0.95b3
#
DISCID=be0fd40e
DTITLE=Blues Boy Willie - American Roots: Blues
DYEAR=2002
DGENRE=Blues
TTITLE0=Juke Joint Blues
TTITLE1=Party All Night
TTITLE2=I Still Care
TTITLE3=The Rest Of My Life
TTITLE4=Where Is Leroy
TTITLE5=Stealin' Your Love Tonight
TTITLE6=Can We Talk Before We Separate
TTITLE7=Highway Blues
TTITLE8=Injustice
TTITLE9=Funny Stuff
TTITLE10=If Lovin' Aint Right
TTITLE11=Leroy
TTITLE12=The Fly
TTITLE13=Fishing Trip
EXTD=
EXTT0=
EXTT1=
EXTT2=
EXTT3=
EXTT4=
EXTT5=
EXTT6=
EXTT7=
EXTT8=
EXTT9=
EXTT10=
EXTT11=
EXTT12=
EXTT13=
PLAYORDER=
